<svg width="99" height="99" viewBox="0 0 99 99" fill="none" xmlns="http://www.w3.org/2000/svg">
<circle cx="49.5" cy="49.5" r="48.5" fill="black" stroke="#575757" stroke-width="2"/>
<path d="M68.8254 40.7445C70.819 39.7644 71.6651 37.3287 70.3782 35.5179C67.8364 31.9412 64.3826 29.0761 60.3451 27.2408C55.0796 24.8475 49.1472 24.3538 43.5586 25.8441C37.97 27.3343 33.071 30.7162 29.6964 35.4136C26.3217 40.1109 24.6802 45.8331 25.0516 51.605C25.4229 57.377 27.7841 62.8416 31.7328 67.0678C35.6816 71.294 40.9735 74.0203 46.707 74.7822C52.4405 75.544 58.2608 74.2943 63.1761 71.2459C66.9452 68.9085 70.0033 65.6244 72.0659 61.7515C73.1102 59.7907 71.9589 57.4836 69.8561 56.7669C67.7534 56.0503 65.5045 57.2126 64.3138 59.088C62.9539 61.2298 61.1211 63.054 58.9361 64.4091C55.6025 66.4765 51.6551 67.3241 47.7667 66.8074C43.8782 66.2907 40.2892 64.4417 37.6111 61.5755C34.9331 58.7092 33.3317 55.0031 33.0799 51.0885C32.828 47.174 33.9413 43.2932 36.23 40.1074C38.5187 36.9217 41.8412 34.628 45.6314 33.6173C49.4216 32.6067 53.445 32.9414 57.0161 34.5646C59.3567 35.6286 61.4081 37.2029 63.0312 39.1527C64.4525 40.8601 66.8317 41.7247 68.8254 40.7445Z" fill="white"/>
</svg>
